<svg id="Capa_1" data-name="Capa 1" xmlns="http://www.w3.org/2000/svg" viewBox="0 0 520.56 640.99"><defs><style>.cls-1{fill:#0c73b8;}</style></defs><g id="g3013"><path id="path2999" class="cls-1" d="M822,220h78.93v28.79H855v28.8h45.92v28.79H822Z" transform="translate(-699.44 -220)"/><path id="path3001" class="cls-1" d="M916.67,220H995.6v25H949.68v5H995.6v57.59H916.67v-26.3h45.92v-5H916.67Z" transform="translate(-699.44 -220)"/><path id="path3003" class="cls-1" d="M1011.38,220h78.93v25h-45.92v5h45.92v57.59h-78.93v-26.3h45.93v-5h-45.93Z" transform="translate(-699.44 -220)"/><path class="cls-1" d="M699.44,346,746.82,809.5,959.4,861l213.18-51.56L1220,346ZM1111,555.79l-1.59,15.26-15.31,149.67-1,9.61L959.72,762.58h0l-.3.08L825.93,730.33l-9.13-89.27h65.42l4.64,45.35,72.58,17.09h.06l72.68-17.11,7.56-73.73H813.89l-5.84-56.85H1045.4l5.93-58.22H802.23l-5.92-56.85h326.43Z" transform="translate(-699.44 -220)"/></g></svg>