<svg id="Capa_1" data-name="Capa 1" xmlns="http://www.w3.org/2000/svg" viewBox="0 0 520.56 666.99"><defs><style>.cls-1{fill:#e54f26;}</style></defs><path class="cls-1" d="M747.88,207H781v29.7h30.3V207h33.12v89.94H811.29V266.83H781v30.11H747.88V207Z" transform="translate(-699.44 -207)"/><path class="cls-1" d="M888,236.83H858.8V207h91.45v29.83H921.08v60.11H888V236.83Z" transform="translate(-699.44 -207)"/><path class="cls-1" d="M964.76,207h34.53l21.24,31.6,21.23-31.6h34.54v89.94h-33V252.36l-22.79,32H1020l-22.8-32v44.58h-32.4Z" transform="translate(-699.44 -207)"/><path class="cls-1" d="M1092.78,207h33.13v60.21h46.57v29.73h-79.7Z" transform="translate(-699.44 -207)"/><path class="cls-1" d="M699.44,338.08l47.38,482.34L959.4,874l213.18-53.65L1220,338.08Zm421.75,114.46-3,30-1.31,13.3H867.53l6,60.58H1111l-1.59,15.88L1094.07,728l-1,10L959.72,771.58h0l-.3.08L825.93,738l-9.13-92.89h65.42l4.64,47.18,72.58,17.79h.06l72.68-17.8,7.56-76.73H813.89l-16-163-1.56-15.87h326.43Z" transform="translate(-699.44 -207)"/></svg>