<svg id="Capa_1" data-name="Capa 1" xmlns="http://www.w3.org/2000/svg" viewBox="0 0 532.56 664.99"><defs><style>.cls-1{fill:#e7a020;}</style></defs><path class="cls-1" d="M959.72,338.33H693.44l49.9,480.24L959.72,873,1176,818.57l50-480.24ZM1096,736.8,959.72,771.13,823.44,736.8l-9.61-92h67.3l4.45,46,74.14,18.95,73-18.67,7.47-76.06H811.29l-.4,1.13,18.73-179.82h269.5l14.81,94.16H1046l-2.48-34.45H884.3l-3.09,60.19h233.54Z" transform="translate(-693.44 -208)"/><polygon class="cls-1" points="214.46 59.49 167.1 59.49 167.1 89.66 214.46 89.66 239.81 89.66 248.39 89.66 248.39 0 214.46 0 214.46 59.49"/><path class="cls-1" d="M1058.91,208.46H976.3v31.39c11,9.81,16.81,14.5,32.8,28.68l-32.8,0V297.2h82.61V268.55l-33-28.7h33Z" transform="translate(-693.44 -208)"/></svg>